<svg width="560" height="112" viewBox="0 0 560 112" fill="none" xmlns="http://www.w3.org/2000/svg">
<g clip-path="url(#clip0_57_388)">
<rect width="560" height="112" fill="#9747FF"/>
<ellipse cx="172" cy="114" rx="73" ry="38" fill="#C87AFF"/>
<ellipse cx="537" cy="23" rx="73" ry="38" fill="#C87AFF"/>
<path d="M421.044 81.4871L421.254 80.7224L420.557 80.344C415 77.3265 411.24 71.4745 411.24 64.756C411.24 54.9557 419.24 47 429.12 47C439 47 447 54.9548 447 64.756C447 71.569 443.128 77.4849 437.44 80.4646L436.727 80.8382L436.94 81.6147L446.638 117H411.311L421.044 81.4871Z" fill="#F2994A" stroke="#0B0B0E" stroke-width="2"/>
<path d="M53.5759 51.3417C45.999 47.2424 35.2901 47.1193 27.6191 51.0399C22.3204 53.7482 16.3223 55.2754 9.96906 55.2754C-11.5529 55.2754 -29 37.7526 -29 16.1377C-29 -5.4778 -11.5529 -23 9.96906 -23C16.646 -23 22.9307 -21.3135 28.4241 -18.3415C36.001 -14.2422 46.7099 -14.1193 54.3804 -18.04C59.6796 -20.7483 65.6777 -22.2752 72.0308 -22.2752C93.553 -22.2752 111 -4.75264 111 16.8623C111 38.4778 93.553 56 72.0308 56C65.354 56 59.0693 54.3138 53.5759 51.3417Z" fill="#2DBC6B"/>
<path d="M281 6.382V-22H319.71C343.576 -22 363 -2.71843 363 21C363 44.7184 343.576 64 319.71 64H281V35.618H319.71C327.834 35.618 334.435 29.0515 334.435 21C334.435 12.9471 327.834 6.382 319.71 6.382H281Z" fill="#D498FF" stroke="#0B0B0E" stroke-width="2"/>
</g>
<defs>
<clipPath id="clip0_57_388">
<rect width="560" height="112" fill="white"/>
</clipPath>
</defs>
</svg>
